<svg width="142" height="150" viewBox="0 0 142 150" fill="none" xmlns="http://www.w3.org/2000/svg">
<g clip-path="url(#clip0_1_3)">
<path fill-rule="evenodd" clip-rule="evenodd" d="M97.5 16.5C97.7376 18.4044 98.738 19.7377 100.5 20.5C102.914 21.9108 104.581 23.9108 105.5 26.5C105.427 28.0269 106.094 29.0269 107.5 29.5C109.306 31.0894 110.639 33.0894 111.5 35.5C117.149 39.4827 122.149 44.1493 126.5 49.5C126.427 51.0269 127.094 52.0269 128.5 52.5C129.906 52.9731 130.573 53.9731 130.5 55.5C130.427 57.027 131.094 58.027 132.5 58.5C135.568 62.644 137.568 67.311 138.5 72.5C138.565 75.428 139.232 78.095 140.5 80.5C141.807 89.137 141.807 97.803 140.5 106.5C138.926 108.102 138.259 110.102 138.5 112.5C129.791 133.35 114.125 145.517 91.5 149C82.3238 149.824 73.3238 149.657 64.5 148.5C62.4855 147.076 60.1522 146.41 57.5 146.5C54.5152 145.674 51.8485 144.341 49.5 142.5C49.0269 141.094 48.0269 140.427 46.5 140.5C45.7377 138.738 44.4044 137.738 42.5 137.5C40.8333 136.5 39.5 135.167 38.5 133.5C35.2023 127.896 32.7023 121.896 31 115.5C30.1841 114.177 29.0174 113.511 27.5 113.5C26.8333 113.5 26.5 113.167 26.5 112.5C25.7377 110.738 24.4044 109.738 22.5 109.5C20.8333 108.5 19.5 107.167 18.5 105.5C18.2624 103.596 17.2624 102.262 15.5 101.5C15.4456 99.368 14.4456 98.035 12.5 97.5C10.1094 90.497 7.60944 83.497 5 76.5C1.08102 59.444 3.58102 43.4438 12.5 28.5C16.088 23.4067 20.2546 18.74 25 14.5C24.4742 12.7725 24.6409 11.1059 25.5 9.5C27.8023 7.9227 29.3023 8.5894 30 11.5C32.5108 9.7781 34.0108 7.44471 34.5 4.50001C38.1621 4.27661 41.4954 3.27661 44.5 1.50001C64.6652 -2.37499 82.3318 2.62501 97.5 16.5ZM87.5 16.5C87.9731 17.9063 88.9731 18.573 90.5 18.5C91.1667 19.8333 92.1667 20.8333 93.5 21.5C94.0798 23.7488 95.4131 25.4154 97.5 26.5C96.791 27.404 95.791 27.7373 94.5 27.5C93.3915 26.71 92.0581 26.21 90.5 26C83.1667 25.3333 75.8333 25.3333 68.5 26C64.8909 26.7013 61.5575 27.8679 58.5 29.5C54.4945 30.4977 51.1612 32.4977 48.5 35.5C46.2512 36.0798 44.5846 37.4131 43.5 39.5C41.5372 40.9599 39.7038 42.6266 38 44.5C37.8255 39.6486 37.3255 34.9819 36.5 30.5C36.1667 30.5 35.8333 30.5 35.5 30.5C33.3926 29.5318 31.0593 29.1984 28.5 29.5C28.3334 48.8362 28.5 68.17 29 87.5C29.7083 88.381 30.5416 89.047 31.5 89.5C44.8333 89.5 58.1667 89.5 71.5 89.5C71.9452 86.635 71.2785 84.135 69.5 82C58.8385 81.5 48.1719 81.333 37.5 81.5C36.9982 74.323 37.6649 67.323 39.5 60.5C54.9723 35.2309 76.639 27.8976 104.5 38.5C104.973 39.9063 105.973 40.573 107.5 40.5C108.795 41.4884 110.128 42.4884 111.5 43.5C114.167 46.8333 117.167 49.8333 120.5 52.5C134.415 73.313 135.915 94.98 125 117.5C121.998 121.334 118.831 125 115.5 128.5C112.883 129.786 110.55 131.453 108.5 133.5C93.8552 140.414 78.5219 142.581 62.5 140C58.8223 138.826 55.1556 137.659 51.5 136.5C50.5637 135.026 49.2303 134.026 47.5 133.5C47.1583 132.662 46.4916 132.328 45.5 132.5C45.2624 130.596 44.2624 129.262 42.5 128.5C42.573 126.973 41.9063 125.973 40.5 125.5C40.4431 124.391 40.1098 123.391 39.5 122.5C39.5 121.833 39.5 121.167 39.5 120.5C40.391 121.11 41.391 121.443 42.5 121.5C44.5145 122.924 46.8478 123.59 49.5 123.5C69.867 127.6 86.867 121.933 100.5 106.5C101.115 111.998 101.281 117.665 101 123.5C102.113 124.305 103.279 124.972 104.5 125.5C106.5 125.5 108.5 125.5 110.5 125.5C110.667 106.164 110.5 86.83 110 67.5C109.617 66.944 109.117 66.611 108.5 66.5C95.0102 65.504 81.3435 65.171 67.5 65.5C67.0548 68.365 67.7215 70.865 69.5 73C80.1615 73.5 90.8281 73.667 101.5 73.5C101.666 78.844 101.499 84.177 101 89.5C99.906 91.078 99.072 92.745 98.5 94.5C96.4131 95.585 95.0798 97.251 94.5 99.5C92.1667 100.5 90.5 102.167 89.5 104.5C83.6361 108.6 77.3028 111.933 70.5 114.5C67.3112 114.858 64.3112 115.525 61.5 116.5C56.8189 116.331 52.1522 115.998 47.5 115.5C45.7857 114.262 43.7857 113.595 41.5 113.5C37.0738 111.452 32.7405 109.118 28.5 106.5C27.1667 104.5 25.5 102.833 23.5 101.5C12.5353 87.035 7.8686 70.702 9.5 52.5C10.9448 49.0635 11.9448 45.3968 12.5 41.5C25.0933 14.2044 46.0933 4.0377 75.5 11C79.6012 12.7495 83.6012 14.5828 87.5 16.5Z" fill="black"/>
<path fill-rule="evenodd" clip-rule="evenodd" d="M93.5 21.5C95.5869 22.5846 96.9202 24.2512 97.5 26.5C95.4131 25.4154 94.0798 23.7488 93.5 21.5Z" fill="black"/>
<path fill-rule="evenodd" clip-rule="evenodd" d="M87.5 16.5C89.0269 16.427 90.0269 17.0937 90.5 18.5C88.9731 18.573 87.9731 17.9063 87.5 16.5Z" fill="black"/>
<path fill-rule="evenodd" clip-rule="evenodd" d="M97.5 26.5C99.332 27.1405 99.665 28.1405 98.5 29.5C96.9745 29.0057 95.6412 28.339 94.5 27.5C95.791 27.7373 96.791 27.404 97.5 26.5Z" fill="black"/>
<path fill-rule="evenodd" clip-rule="evenodd" d="M105.5 26.5C106.906 26.9731 107.573 27.9731 107.5 29.5C106.094 29.0269 105.427 28.0269 105.5 26.5Z" fill="black"/>
<path fill-rule="evenodd" clip-rule="evenodd" d="M35.5 30.5C34.1667 30.5 32.8333 30.5 31.5 30.5C31.5 50.1667 31.5 69.833 31.5 89.5C30.5416 89.047 29.7083 88.381 29 87.5C28.5 68.17 28.3334 48.8362 28.5 29.5C31.0593 29.1984 33.3926 29.5318 35.5 30.5Z" fill="black"/>
<path fill-rule="evenodd" clip-rule="evenodd" d="M35.5 30.5C35.8333 30.5 36.1667 30.5 36.5 30.5C36.1701 47.6749 36.5034 64.675 37.5 81.5C48.1719 81.333 58.8385 81.5 69.5 82C71.2785 84.135 71.9452 86.635 71.5 89.5C58.1667 89.5 44.8333 89.5 31.5 89.5C31.5 69.833 31.5 50.1667 31.5 30.5C32.8333 30.5 34.1667 30.5 35.5 30.5Z" fill="black"/>
<path fill-rule="evenodd" clip-rule="evenodd" d="M104.5 38.5C106.027 38.427 107.027 39.0937 107.5 40.5C105.973 40.573 104.973 39.9063 104.5 38.5Z" fill="black"/>
<path fill-rule="evenodd" clip-rule="evenodd" d="M111.5 43.5C115.5 45.5 118.5 48.5 120.5 52.5C117.167 49.8333 114.167 46.8333 111.5 43.5Z" fill="black"/>
<path fill-rule="evenodd" clip-rule="evenodd" d="M12.5 41.5C11.9448 45.3968 10.9448 49.0635 9.5 52.5C9.4318 48.4296 10.4318 44.763 12.5 41.5Z" fill="black"/>
<path fill-rule="evenodd" clip-rule="evenodd" d="M58.5 29.5C57.3157 30.6879 57.3157 31.8545 58.5 33C57.3349 34.0836 56.0016 34.9169 54.5 35.5C52.4954 32.9722 50.8287 33.3055 49.5 36.5C49.7093 37.086 50.0426 37.586 50.5 38C46.2984 41.8666 42.4651 46.0332 39 50.5C37.4961 54.0387 37.1628 57.705 38 61.5C38.3826 60.944 38.8826 60.611 39.5 60.5C37.6649 67.323 36.9982 74.323 37.5 81.5C36.5034 64.675 36.1701 47.6749 36.5 30.5C37.3255 34.9819 37.8255 39.6486 38 44.5C39.7038 42.6266 41.5372 40.9599 43.5 39.5C45.7488 38.9202 47.4154 37.5869 48.5 35.5C51.1612 32.4977 54.4945 30.4977 58.5 29.5Z" fill="black"/>
<path fill-rule="evenodd" clip-rule="evenodd" d="M48.5 35.5C47.4154 37.5869 45.7488 38.9202 43.5 39.5C44.5846 37.4131 46.2512 36.0798 48.5 35.5Z" fill="black"/>
<path fill-rule="evenodd" clip-rule="evenodd" d="M126.5 49.5C127.906 49.9731 128.573 50.9731 128.5 52.5C127.094 52.0269 126.427 51.0269 126.5 49.5Z" fill="black"/>
<path fill-rule="evenodd" clip-rule="evenodd" d="M44.5 1.5C41.4954 3.2766 38.1621 4.2766 34.5 4.5C37.5046 2.7234 40.8379 1.7234 44.5 1.5Z" fill="black"/>
<path fill-rule="evenodd" clip-rule="evenodd" d="M34.5 4.5C34.0108 7.4447 32.5108 9.7781 30 11.5C29.3023 8.5894 27.8023 7.9227 25.5 9.5C28.0078 7.0764 31.0078 5.4097 34.5 4.5Z" fill="black"/>
<path fill-rule="evenodd" clip-rule="evenodd" d="M25.5 9.5C24.6409 11.1059 24.4742 12.7725 25 14.5C20.2546 18.74 16.088 23.4067 12.5 28.5C12.4013 25.7628 12.7347 23.0961 13.5 20.5C16.8947 16.1024 20.8947 12.4357 25.5 9.5Z" fill="black"/>
<path fill-rule="evenodd" clip-rule="evenodd" d="M97.5 16.5C99.262 17.2623 100.262 18.5956 100.5 20.5C98.738 19.7377 97.7376 18.4044 97.5 16.5Z" fill="black"/>
<path fill-rule="evenodd" clip-rule="evenodd" d="M13.5 20.5C12.7347 23.0961 12.4013 25.7628 12.5 28.5C3.58102 43.4438 1.08102 59.444 5 76.5C7.60944 83.497 10.1094 90.497 12.5 97.5C-0.149427 78.68 -2.98276 58.346 4 36.5C6.43749 30.6076 9.6042 25.2742 13.5 20.5Z" fill="black"/>
<path fill-rule="evenodd" clip-rule="evenodd" d="M130.5 55.5C131.906 55.9731 132.573 56.973 132.5 58.5C131.094 58.027 130.427 57.027 130.5 55.5Z" fill="black"/>
<path fill-rule="evenodd" clip-rule="evenodd" d="M108.5 66.5C109.117 66.611 109.617 66.944 110 67.5C110.5 86.83 110.667 106.164 110.5 125.5C108.5 125.5 106.5 125.5 104.5 125.5C104.5 108.167 104.5 90.833 104.5 73.5C103.5 73.5 102.5 73.5 101.5 73.5C91.3468 72.506 81.0135 72.172 70.5 72.5C70.7394 70.533 70.4061 68.699 69.5 67C82.4957 66.5 95.4957 66.333 108.5 66.5Z" fill="black"/>
<path fill-rule="evenodd" clip-rule="evenodd" d="M108.5 66.5C95.4957 66.333 82.4957 66.5 69.5 67C70.4061 68.699 70.7394 70.533 70.5 72.5C81.0135 72.172 91.3468 72.506 101.5 73.5C90.8281 73.667 80.1615 73.5 69.5 73C67.7215 70.865 67.0548 68.365 67.5 65.5C81.3435 65.171 95.0102 65.504 108.5 66.5Z" fill="black"/>
<path fill-rule="evenodd" clip-rule="evenodd" d="M101.5 73.5C102.5 73.5 103.5 73.5 104.5 73.5C104.5 90.833 104.5 108.167 104.5 125.5C103.279 124.972 102.113 124.305 101 123.5C101.281 117.665 101.115 111.998 100.5 106.5C101.403 103.609 101.736 100.609 101.5 97.5C101.5 95.5 100.5 94.5 98.5 94.5C99.072 92.745 99.906 91.078 101 89.5C101.499 84.177 101.666 78.844 101.5 73.5Z" fill="black"/>
<path fill-rule="evenodd" clip-rule="evenodd" d="M138.5 72.5C140.04 74.838 140.706 77.505 140.5 80.5C139.232 78.095 138.565 75.428 138.5 72.5Z" fill="black"/>
<path fill-rule="evenodd" clip-rule="evenodd" d="M120.5 52.5C128.824 60.236 133.657 69.902 135 81.5C137.643 95.921 135.143 109.255 127.5 121.5C123.5 123.833 119.5 126.167 115.5 128.5C118.831 125 121.998 121.334 125 117.5C135.915 94.98 134.415 73.313 120.5 52.5Z" fill="black"/>
<path fill-rule="evenodd" clip-rule="evenodd" d="M98.5 94.5C97.9202 96.749 96.5869 98.415 94.5 99.5C95.0798 97.251 96.4131 95.585 98.5 94.5Z" fill="black"/>
<path fill-rule="evenodd" clip-rule="evenodd" d="M12.5 97.5C14.4456 98.035 15.4456 99.368 15.5 101.5C13.7376 100.738 12.7376 99.404 12.5 97.5Z" fill="black"/>
<path fill-rule="evenodd" clip-rule="evenodd" d="M98.5 94.5C100.5 94.5 101.5 95.5 101.5 97.5C99.734 99.771 97.7341 101.937 95.5 104C93.3901 103.653 91.3901 103.82 89.5 104.5C90.5 102.167 92.1667 100.5 94.5 99.5C96.5869 98.415 97.9202 96.749 98.5 94.5Z" fill="black"/>
<path fill-rule="evenodd" clip-rule="evenodd" d="M15.5 101.5C17.2624 102.262 18.2624 103.596 18.5 105.5C16.7376 104.738 15.7376 103.404 15.5 101.5Z" fill="black"/>
<path fill-rule="evenodd" clip-rule="evenodd" d="M23.5 101.5C25.5 102.833 27.1667 104.5 28.5 106.5C25.8333 105.833 24.1667 104.167 23.5 101.5Z" fill="black"/>
<path fill-rule="evenodd" clip-rule="evenodd" d="M22.5 109.5C24.4044 109.738 25.7377 110.738 26.5 112.5C24.5956 112.262 23.2623 111.262 22.5 109.5Z" fill="black"/>
<path fill-rule="evenodd" clip-rule="evenodd" d="M140.5 106.5C140.405 108.786 139.738 110.786 138.5 112.5C138.259 110.102 138.926 108.102 140.5 106.5Z" fill="black"/>
<path fill-rule="evenodd" clip-rule="evenodd" d="M89.5 104.5C86.6024 106.773 86.9358 108.273 90.5 109C86.2943 111.602 81.961 113.936 77.5 116C75.1527 116.334 72.8194 116.167 70.5 115.5C70.5 115.167 70.5 114.833 70.5 114.5C77.3028 111.933 83.6361 108.6 89.5 104.5Z" fill="black"/>
<path fill-rule="evenodd" clip-rule="evenodd" d="M41.5 113.5C43.7857 113.595 45.7857 114.262 47.5 115.5C45.1016 115.741 43.1016 115.074 41.5 113.5Z" fill="black"/>
<path fill-rule="evenodd" clip-rule="evenodd" d="M70.5 114.5C70.5 114.833 70.5 115.167 70.5 115.5C67.5701 116.299 64.5701 116.632 61.5 116.5C64.3112 115.525 67.3112 114.858 70.5 114.5Z" fill="black"/>
<path fill-rule="evenodd" clip-rule="evenodd" d="M27.5 113.5C29.0174 113.511 30.1841 114.177 31 115.5C32.7023 121.896 35.2023 127.896 38.5 133.5C32.9711 127.965 29.3045 121.299 27.5 113.5Z" fill="black"/>
<path fill-rule="evenodd" clip-rule="evenodd" d="M39.5 120.5C39.5 121.167 39.5 121.833 39.5 122.5C38.7326 121.828 38.0659 120.995 37.5 120C38.4368 119.308 39.1034 119.475 39.5 120.5Z" fill="black"/>
<path fill-rule="evenodd" clip-rule="evenodd" d="M42.5 121.5C45.1522 121.41 47.4855 122.076 49.5 123.5C46.8478 123.59 44.5145 122.924 42.5 121.5Z" fill="black"/>
<path fill-rule="evenodd" clip-rule="evenodd" d="M40.5 125.5C41.9063 125.973 42.573 126.973 42.5 128.5C41.0937 128.027 40.427 127.027 40.5 125.5Z" fill="black"/>
<path fill-rule="evenodd" clip-rule="evenodd" d="M127.5 121.5C123.477 126.566 118.811 130.899 113.5 134.5C111.929 133.691 110.262 133.357 108.5 133.5C110.55 131.453 112.883 129.786 115.5 128.5C119.5 126.167 123.5 123.833 127.5 121.5Z" fill="black"/>
<path fill-rule="evenodd" clip-rule="evenodd" d="M42.5 128.5C44.2624 129.262 45.2624 130.596 45.5 132.5C43.7376 131.738 42.7376 130.404 42.5 128.5Z" fill="black"/>
<path fill-rule="evenodd" clip-rule="evenodd" d="M47.5 133.5C49.2303 134.026 50.5637 135.026 51.5 136.5C49.368 136.446 48.0347 135.446 47.5 133.5Z" fill="black"/>
<path fill-rule="evenodd" clip-rule="evenodd" d="M42.5 137.5C44.4044 137.738 45.7377 138.738 46.5 140.5C44.5956 140.262 43.2623 139.262 42.5 137.5Z" fill="black"/>
<path fill-rule="evenodd" clip-rule="evenodd" d="M46.5 140.5C48.0269 140.427 49.0269 141.094 49.5 142.5C47.9731 142.573 46.9731 141.906 46.5 140.5Z" fill="black"/>
<path fill-rule="evenodd" clip-rule="evenodd" d="M57.5 146.5C60.1522 146.41 62.4855 147.076 64.5 148.5C61.8478 148.59 59.5145 147.924 57.5 146.5Z" fill="black"/>
</g>
<defs>
<clipPath id="clip0_1_3">
<rect width="142" height="150" fill="black"/>
</clipPath>
</defs>
</svg>
