<?xml version="1.0" encoding="UTF-8"?>
<!DOCTYPE svg PUBLIC "-//W3C//DTD SVG 1.1//EN" "http://www.w3.org/Graphics/SVG/1.1/DTD/svg11.dtd">
<svg xmlns="http://www.w3.org/2000/svg" version="1.1" width="415px" height="235px" style="shape-rendering:geometricPrecision; text-rendering:geometricPrecision; image-rendering:optimizeQuality; fill-rule:evenodd; clip-rule:evenodd" xmlns:xlink="http://www.w3.org/1999/xlink">
<g><path style="opacity:1" fill="#000000" d="M 46.5,45.5 C 43.4954,47.2766 40.1621,48.2766 36.5,48.5C 39.5046,46.7234 42.8379,45.7234 46.5,45.5 Z"/></g>
<g><path style="opacity:1" fill="#000000" d="M 36.5,48.5 C 36.0108,51.4447 34.5108,53.7781 32,55.5C 31.3023,52.5894 29.8023,51.9227 27.5,53.5C 30.0078,51.0764 33.0078,49.4097 36.5,48.5 Z"/></g>
<g><path style="opacity:1" fill="#000000" d="M 27.5,53.5 C 26.6409,55.1059 26.4742,56.7725 27,58.5C 22.2546,62.74 18.088,67.4067 14.5,72.5C 14.4013,69.7628 14.7347,67.0961 15.5,64.5C 18.8947,60.1024 22.8947,56.4357 27.5,53.5 Z"/></g>
<g><path style="opacity:1" fill="#000000" d="M 99.5,60.5 C 101.262,61.2623 102.262,62.5956 102.5,64.5C 100.738,63.7377 99.7376,62.4044 99.5,60.5 Z"/></g>
<g><path style="opacity:1" fill="#000000" d="M 163.5,69.5 C 169.701,68.285 174.868,69.9517 179,74.5C 179.483,75.448 179.649,76.448 179.5,77.5C 177.473,77.6621 175.473,77.4955 173.5,77C 169.864,72.3795 166.364,72.5462 163,77.5C 162.233,81.5575 162.4,85.5575 163.5,89.5C 168.65,93.6084 172.317,92.4417 174.5,86C 172.19,85.5034 169.857,85.3367 167.5,85.5C 167.5,84.1667 167.5,82.8333 167.5,81.5C 171.5,81.5 175.5,81.5 179.5,81.5C 179.5,86.1667 179.5,90.8333 179.5,95.5C 177.549,95.7733 176.049,95.1066 175,93.5C 171.319,96.3597 167.152,97.1931 162.5,96C 156.412,91.7481 154.246,85.9148 156,78.5C 157.113,74.2341 159.613,71.2341 163.5,69.5 Z"/></g>
<g><path style="opacity:1" fill="#000000" d="M 211.5,69.5 C 227.151,69.0865 232.318,76.4198 227,91.5C 221.221,97.1636 214.721,97.9969 207.5,94C 201.457,84.4045 202.791,76.2378 211.5,69.5 Z M 214.5,73.5 C 220.204,74.0418 222.871,77.2085 222.5,83C 222.389,90.8186 218.889,93.3186 212,90.5C 208.268,84.0202 209.101,78.3535 214.5,73.5 Z"/></g>
<g><path style="opacity:1" fill="#000000" d="M 15.5,64.5 C 14.7347,67.0961 14.4013,69.7628 14.5,72.5C 5.58102,87.4438 3.08102,103.444 7,120.5C 9.60944,127.497 12.1094,134.497 14.5,141.5C 1.85057,122.68 -0.982764,102.346 6,80.5C 8.43749,74.6076 11.6042,69.2742 15.5,64.5 Z"/></g>
<g><path style="opacity:1" fill="#000000" d="M 99.5,60.5 C 99.7376,62.4044 100.738,63.7377 102.5,64.5C 104.914,65.9108 106.581,67.9108 107.5,70.5C 107.427,72.0269 108.094,73.0269 109.5,73.5C 111.306,75.0894 112.639,77.0894 113.5,79.5C 119.149,83.4827 124.149,88.1493 128.5,93.5C 128.427,95.0269 129.094,96.0269 130.5,96.5C 131.906,96.9731 132.573,97.9731 132.5,99.5C 132.427,101.027 133.094,102.027 134.5,102.5C 137.568,106.644 139.568,111.311 140.5,116.5C 140.565,119.428 141.232,122.095 142.5,124.5C 143.807,133.137 143.807,141.803 142.5,150.5C 140.926,152.102 140.259,154.102 140.5,156.5C 131.791,177.35 116.125,189.517 93.5,193C 84.3238,193.824 75.3238,193.657 66.5,192.5C 64.4855,191.076 62.1522,190.41 59.5,190.5C 56.5152,189.674 53.8485,188.341 51.5,186.5C 51.0269,185.094 50.0269,184.427 48.5,184.5C 47.7377,182.738 46.4044,181.738 44.5,181.5C 42.8333,180.5 41.5,179.167 40.5,177.5C 37.2023,171.896 34.7023,165.896 33,159.5C 32.1841,158.177 31.0174,157.511 29.5,157.5C 28.8333,157.5 28.5,157.167 28.5,156.5C 27.7377,154.738 26.4044,153.738 24.5,153.5C 22.8333,152.5 21.5,151.167 20.5,149.5C 20.2624,147.596 19.2624,146.262 17.5,145.5C 17.4456,143.368 16.4456,142.035 14.5,141.5C 12.1094,134.497 9.60944,127.497 7,120.5C 3.08102,103.444 5.58102,87.4438 14.5,72.5C 18.088,67.4067 22.2546,62.74 27,58.5C 26.4742,56.7725 26.6409,55.1059 27.5,53.5C 29.8023,51.9227 31.3023,52.5894 32,55.5C 34.5108,53.7781 36.0108,51.4447 36.5,48.5C 40.1621,48.2766 43.4954,47.2766 46.5,45.5C 66.6652,41.625 84.3318,46.625 99.5,60.5 Z M 89.5,60.5 C 89.9731,61.9063 90.9731,62.573 92.5,62.5C 93.1667,63.8333 94.1667,64.8333 95.5,65.5C 96.0798,67.7488 97.4131,69.4154 99.5,70.5C 98.791,71.404 97.791,71.7373 96.5,71.5C 95.3915,70.71 94.0581,70.21 92.5,70C 85.1667,69.3333 77.8333,69.3333 70.5,70C 66.8909,70.7013 63.5575,71.8679 60.5,73.5C 56.4945,74.4977 53.1612,76.4977 50.5,79.5C 48.2512,80.0798 46.5846,81.4131 45.5,83.5C 43.5372,84.9599 41.7038,86.6266 40,88.5C 39.8255,83.6486 39.3255,78.9819 38.5,74.5C 38.1667,74.5 37.8333,74.5 37.5,74.5C 35.3926,73.5318 33.0593,73.1984 30.5,73.5C 30.3334,92.8362 30.5,112.17 31,131.5C 31.7083,132.381 32.5416,133.047 33.5,133.5C 46.8333,133.5 60.1667,133.5 73.5,133.5C 73.9452,130.635 73.2785,128.135 71.5,126C 60.8385,125.5 50.1719,125.333 39.5,125.5C 38.9982,118.323 39.6649,111.323 41.5,104.5C 56.9723,79.2309 78.639,71.8976 106.5,82.5C 106.973,83.9063 107.973,84.573 109.5,84.5C 110.795,85.4884 112.128,86.4884 113.5,87.5C 116.167,90.8333 119.167,93.8333 122.5,96.5C 136.415,117.313 137.915,138.98 127,161.5C 123.998,165.334 120.831,169 117.5,172.5C 114.883,173.786 112.55,175.453 110.5,177.5C 95.8552,184.414 80.5219,186.581 64.5,184C 60.8223,182.826 57.1556,181.659 53.5,180.5C 52.5637,179.026 51.2303,178.026 49.5,177.5C 49.1583,176.662 48.4916,176.328 47.5,176.5C 47.2624,174.596 46.2624,173.262 44.5,172.5C 44.573,170.973 43.9063,169.973 42.5,169.5C 42.4431,168.391 42.1098,167.391 41.5,166.5C 41.5,165.833 41.5,165.167 41.5,164.5C 42.391,165.11 43.391,165.443 44.5,165.5C 46.5145,166.924 48.8478,167.59 51.5,167.5C 71.867,171.6 88.867,165.933 102.5,150.5C 103.115,155.998 103.281,161.665 103,167.5C 104.113,168.305 105.279,168.972 106.5,169.5C 108.5,169.5 110.5,169.5 112.5,169.5C 112.667,150.164 112.5,130.83 112,111.5C 111.617,110.944 111.117,110.611 110.5,110.5C 97.0102,109.504 83.3435,109.171 69.5,109.5C 69.0548,112.365 69.7215,114.865 71.5,117C 82.1615,117.5 92.8281,117.667 103.5,117.5C 103.666,122.844 103.499,128.177 103,133.5C 101.906,135.078 101.072,136.745 100.5,138.5C 98.4131,139.585 97.0798,141.251 96.5,143.5C 94.1667,144.5 92.5,146.167 91.5,148.5C 85.6361,152.6 79.3028,155.933 72.5,158.5C 69.3112,158.858 66.3112,159.525 63.5,160.5C 58.8189,160.331 54.1522,159.998 49.5,159.5C 47.7857,158.262 45.7857,157.595 43.5,157.5C 39.0738,155.452 34.7405,153.118 30.5,150.5C 29.1667,148.5 27.5,146.833 25.5,145.5C 14.5353,131.035 9.8686,114.702 11.5,96.5C 12.9448,93.0635 13.9448,89.3968 14.5,85.5C 27.0933,58.2044 48.0933,48.0377 77.5,55C 81.6012,56.7495 85.6012,58.5828 89.5,60.5 Z"/></g>
<g><path style="opacity:1" fill="#000000" d="M 95.5,65.5 C 97.5869,66.5846 98.9202,68.2512 99.5,70.5C 97.4131,69.4154 96.0798,67.7488 95.5,65.5 Z"/></g>
<g><path style="opacity:1" fill="#000000" d="M 89.5,60.5 C 91.0269,60.427 92.0269,61.0937 92.5,62.5C 90.9731,62.573 89.9731,61.9063 89.5,60.5 Z"/></g>
<g><path style="opacity:1" fill="#000000" d="M 183.5,70.5 C 185.5,70.5 187.5,70.5 189.5,70.5C 189.5,77.5 189.5,84.5 189.5,91.5C 193.833,91.5 198.167,91.5 202.5,91.5C 202.5,92.8333 202.5,94.1667 202.5,95.5C 196.167,95.5 189.833,95.5 183.5,95.5C 183.5,87.1667 183.5,78.8333 183.5,70.5 Z"/></g>
<g><path style="opacity:1" fill="#000000" d="M 232.5,70.5 C 238.952,70.0845 245.285,70.5845 251.5,72C 254.167,75.3333 254.167,78.6667 251.5,82C 255.646,86.6253 255.313,90.9586 250.5,95C 244.509,95.4995 238.509,95.6662 232.5,95.5C 232.5,87.1667 232.5,78.8333 232.5,70.5 Z M 238.5,74.5 C 240.857,74.3367 243.19,74.5034 245.5,75C 248.167,76.6667 248.167,78.3333 245.5,80C 243.19,80.4966 240.857,80.6633 238.5,80.5C 238.5,78.5 238.5,76.5 238.5,74.5 Z M 238.5,84.5 C 241.187,84.3359 243.854,84.5026 246.5,85C 249.167,87 249.167,89 246.5,91C 243.854,91.4974 241.187,91.6641 238.5,91.5C 238.5,89.1667 238.5,86.8333 238.5,84.5 Z"/></g>
<g><path style="opacity:1" fill="#000000" d="M 264.5,70.5 C 267.167,70.5 269.833,70.5 272.5,70.5C 274.562,78.6863 277.229,86.6863 280.5,94.5C 278.257,95.4742 275.924,95.8076 273.5,95.5C 273.579,94.0695 273.246,92.7362 272.5,91.5C 269.572,90.5159 266.572,90.1826 263.5,90.5C 263.166,94.648 260.833,96.3147 256.5,95.5C 259.167,87.1667 261.833,78.8333 264.5,70.5 Z M 267.5,78.5 C 269.267,80.7916 270.267,83.4582 270.5,86.5C 268.712,86.7852 267.045,86.4519 265.5,85.5C 266.577,83.2706 267.244,80.9372 267.5,78.5 Z"/></g>
<g><path style="opacity:1" fill="#000000" d="M 282.5,70.5 C 284.5,70.5 286.5,70.5 288.5,70.5C 288.5,77.5 288.5,84.5 288.5,91.5C 292.833,91.5 297.167,91.5 301.5,91.5C 301.5,92.8333 301.5,94.1667 301.5,95.5C 295.167,95.5 288.833,95.5 282.5,95.5C 282.5,87.1667 282.5,78.8333 282.5,70.5 Z"/></g>
<g><path style="opacity:1" fill="#000000" d="M 99.5,70.5 C 101.332,71.1405 101.665,72.1405 100.5,73.5C 98.9745,73.0057 97.6412,72.339 96.5,71.5C 97.791,71.7373 98.791,71.404 99.5,70.5 Z"/></g>
<g><path style="opacity:1" fill="#000000" d="M 107.5,70.5 C 108.906,70.9731 109.573,71.9731 109.5,73.5C 108.094,73.0269 107.427,72.0269 107.5,70.5 Z"/></g>
<g><path style="opacity:1" fill="#000000" d="M 37.5,74.5 C 36.1667,74.5 34.8333,74.5 33.5,74.5C 33.5,94.1667 33.5,113.833 33.5,133.5C 32.5416,133.047 31.7083,132.381 31,131.5C 30.5,112.17 30.3334,92.8362 30.5,73.5C 33.0593,73.1984 35.3926,73.5318 37.5,74.5 Z"/></g>
<g><path style="opacity:1" fill="#000000" d="M 37.5,74.5 C 37.8333,74.5 38.1667,74.5 38.5,74.5C 38.1701,91.6749 38.5034,108.675 39.5,125.5C 50.1719,125.333 60.8385,125.5 71.5,126C 73.2785,128.135 73.9452,130.635 73.5,133.5C 60.1667,133.5 46.8333,133.5 33.5,133.5C 33.5,113.833 33.5,94.1667 33.5,74.5C 34.8333,74.5 36.1667,74.5 37.5,74.5 Z"/></g>
<g><path style="opacity:1" fill="#000000" d="M 106.5,82.5 C 108.027,82.427 109.027,83.0937 109.5,84.5C 107.973,84.573 106.973,83.9063 106.5,82.5 Z"/></g>
<g><path style="opacity:1" fill="#000000" d="M 113.5,87.5 C 117.5,89.5 120.5,92.5 122.5,96.5C 119.167,93.8333 116.167,90.8333 113.5,87.5 Z"/></g>
<g><path style="opacity:1" fill="#000000" d="M 14.5,85.5 C 13.9448,89.3968 12.9448,93.0635 11.5,96.5C 11.4318,92.4296 12.4318,88.763 14.5,85.5 Z"/></g>
<g><path style="opacity:1" fill="#000000" d="M 60.5,73.5 C 59.3157,74.6879 59.3157,75.8545 60.5,77C 59.3349,78.0836 58.0016,78.9169 56.5,79.5C 54.4954,76.9722 52.8287,77.3055 51.5,80.5C 51.7093,81.086 52.0426,81.586 52.5,82C 48.2984,85.8666 44.4651,90.0332 41,94.5C 39.4961,98.0387 39.1628,101.705 40,105.5C 40.3826,104.944 40.8826,104.611 41.5,104.5C 39.6649,111.323 38.9982,118.323 39.5,125.5C 38.5034,108.675 38.1701,91.6749 38.5,74.5C 39.3255,78.9819 39.8255,83.6486 40,88.5C 41.7038,86.6266 43.5372,84.9599 45.5,83.5C 47.7488,82.9202 49.4154,81.5869 50.5,79.5C 53.1612,76.4977 56.4945,74.4977 60.5,73.5 Z"/></g>
<g><path style="opacity:1" fill="#000000" d="M 50.5,79.5 C 49.4154,81.5869 47.7488,82.9202 45.5,83.5C 46.5846,81.4131 48.2512,80.0798 50.5,79.5 Z"/></g>
<g><path style="opacity:1" fill="#000000" d="M 128.5,93.5 C 129.906,93.9731 130.573,94.9731 130.5,96.5C 129.094,96.0269 128.427,95.0269 128.5,93.5 Z"/></g>
<g><path style="opacity:1" fill="#000000" d="M 132.5,99.5 C 133.906,99.9731 134.573,100.973 134.5,102.5C 133.094,102.027 132.427,101.027 132.5,99.5 Z"/></g>
<g><path style="opacity:1" fill="#000000" d="M 162.5,109.5 C 166.637,109.146 170.637,109.646 174.5,111C 177.024,112.883 178.358,115.383 178.5,118.5C 176.473,118.662 174.473,118.495 172.5,118C 170.625,113.871 167.959,113.037 164.5,115.5C 162.074,120.425 161.908,125.425 164,130.5C 167.618,133.464 170.451,132.798 172.5,128.5C 174.396,127.534 176.396,127.201 178.5,127.5C 178.276,131.562 176.276,134.395 172.5,136C 159.75,137.917 154.25,132.417 156,119.5C 156.932,115.288 159.098,111.955 162.5,109.5 Z"/></g>
<g><path style="opacity:1" fill="#000000" d="M 110.5,110.5 C 111.117,110.611 111.617,110.944 112,111.5C 112.5,130.83 112.667,150.164 112.5,169.5C 110.5,169.5 108.5,169.5 106.5,169.5C 106.5,152.167 106.5,134.833 106.5,117.5C 105.5,117.5 104.5,117.5 103.5,117.5C 93.3468,116.506 83.0135,116.172 72.5,116.5C 72.7394,114.533 72.4061,112.699 71.5,111C 84.4957,110.5 97.4957,110.333 110.5,110.5 Z"/></g>
<g><path style="opacity:1" fill="#000000" d="M 188.5,110.5 C 191.167,110.5 193.833,110.5 196.5,110.5C 198.562,118.686 201.229,126.686 204.5,134.5C 202.257,135.474 199.924,135.808 197.5,135.5C 197.579,134.07 197.246,132.736 196.5,131.5C 193.572,130.516 190.572,130.183 187.5,130.5C 187.166,134.648 184.833,136.315 180.5,135.5C 183.167,127.167 185.833,118.833 188.5,110.5 Z M 191.5,118.5 C 193.267,120.792 194.267,123.458 194.5,126.5C 192.712,126.785 191.045,126.452 189.5,125.5C 190.577,123.271 191.244,120.937 191.5,118.5 Z"/></g>
<g><path style="opacity:1" fill="#000000" d="M 206.5,110.5 C 211.844,110.334 217.177,110.501 222.5,111C 223.931,111.465 225.097,112.299 226,113.5C 228.366,124.606 223.866,128.939 212.5,126.5C 212.5,129.5 212.5,132.5 212.5,135.5C 210.5,135.5 208.5,135.5 206.5,135.5C 206.5,127.167 206.5,118.833 206.5,110.5 Z M 212.5,114.5 C 218.917,113.163 221.25,115.496 219.5,121.5C 217.253,122.374 214.92,122.708 212.5,122.5C 212.5,119.833 212.5,117.167 212.5,114.5 Z"/></g>
<g><path style="opacity:1" fill="#000000" d="M 230.5,110.5 C 232.5,110.5 234.5,110.5 236.5,110.5C 236.5,118.833 236.5,127.167 236.5,135.5C 234.5,135.5 232.5,135.5 230.5,135.5C 230.5,127.167 230.5,118.833 230.5,110.5 Z"/></g>
<g><path style="opacity:1" fill="#000000" d="M 237.5,110.5 C 244.5,110.5 251.5,110.5 258.5,110.5C 258.5,111.833 258.5,113.167 258.5,114.5C 256.167,114.5 253.833,114.5 251.5,114.5C 251.5,121.5 251.5,128.5 251.5,135.5C 249.5,135.5 247.5,135.5 245.5,135.5C 245.5,128.5 245.5,121.5 245.5,114.5C 242.833,114.5 240.167,114.5 237.5,114.5C 237.5,113.167 237.5,111.833 237.5,110.5 Z"/></g>
<g><path style="opacity:1" fill="#000000" d="M 265.5,110.5 C 268.167,110.5 270.833,110.5 273.5,110.5C 275.562,118.686 278.229,126.686 281.5,134.5C 279.257,135.474 276.924,135.808 274.5,135.5C 274.579,134.07 274.246,132.736 273.5,131.5C 270.572,130.516 267.572,130.183 264.5,130.5C 264.166,134.648 261.833,136.315 257.5,135.5C 260.167,127.167 262.833,118.833 265.5,110.5 Z M 268.5,118.5 C 270.267,120.792 271.267,123.458 271.5,126.5C 269.712,126.785 268.045,126.452 266.5,125.5C 267.577,123.271 268.244,120.937 268.5,118.5 Z"/></g>
<g><path style="opacity:1" fill="#000000" d="M 283.5,110.5 C 285.5,110.5 287.5,110.5 289.5,110.5C 289.5,117.5 289.5,124.5 289.5,131.5C 293.833,131.5 298.167,131.5 302.5,131.5C 302.5,132.833 302.5,134.167 302.5,135.5C 296.167,135.5 289.833,135.5 283.5,135.5C 283.5,127.167 283.5,118.833 283.5,110.5 Z"/></g>
<g><path style="opacity:1" fill="#000000" d="M 110.5,110.5 C 97.4957,110.333 84.4957,110.5 71.5,111C 72.4061,112.699 72.7394,114.533 72.5,116.5C 83.0135,116.172 93.3468,116.506 103.5,117.5C 92.8281,117.667 82.1615,117.5 71.5,117C 69.7215,114.865 69.0548,112.365 69.5,109.5C 83.3435,109.171 97.0102,109.504 110.5,110.5 Z"/></g>
<g><path style="opacity:1" fill="#000000" d="M 103.5,117.5 C 104.5,117.5 105.5,117.5 106.5,117.5C 106.5,134.833 106.5,152.167 106.5,169.5C 105.279,168.972 104.113,168.305 103,167.5C 103.281,161.665 103.115,155.998 102.5,150.5C 103.403,147.609 103.736,144.609 103.5,141.5C 103.5,139.5 102.5,138.5 100.5,138.5C 101.072,136.745 101.906,135.078 103,133.5C 103.499,128.177 103.666,122.844 103.5,117.5 Z"/></g>
<g><path style="opacity:1" fill="#000000" d="M 140.5,116.5 C 142.04,118.838 142.706,121.505 142.5,124.5C 141.232,122.095 140.565,119.428 140.5,116.5 Z"/></g>
<g><path style="opacity:1" fill="#000000" d="M 122.5,96.5 C 130.824,104.236 135.657,113.902 137,125.5C 139.643,139.921 137.143,153.255 129.5,165.5C 125.5,167.833 121.5,170.167 117.5,172.5C 120.831,169 123.998,165.334 127,161.5C 137.915,138.98 136.415,117.313 122.5,96.5 Z"/></g>
<g><path style="opacity:1" fill="#000000" d="M 100.5,138.5 C 99.9202,140.749 98.5869,142.415 96.5,143.5C 97.0798,141.251 98.4131,139.585 100.5,138.5 Z"/></g>
<g><path style="opacity:1" fill="#000000" d="M 14.5,141.5 C 16.4456,142.035 17.4456,143.368 17.5,145.5C 15.7376,144.738 14.7376,143.404 14.5,141.5 Z"/></g>
<g><path style="opacity:1" fill="#000000" d="M 100.5,138.5 C 102.5,138.5 103.5,139.5 103.5,141.5C 101.734,143.771 99.7341,145.937 97.5,148C 95.3901,147.653 93.3901,147.82 91.5,148.5C 92.5,146.167 94.1667,144.5 96.5,143.5C 98.5869,142.415 99.9202,140.749 100.5,138.5 Z"/></g>
<g><path style="opacity:1" fill="#000000" d="M 17.5,145.5 C 19.2624,146.262 20.2624,147.596 20.5,149.5C 18.7376,148.738 17.7376,147.404 17.5,145.5 Z"/></g>
<g><path style="opacity:1" fill="#000000" d="M 25.5,145.5 C 27.5,146.833 29.1667,148.5 30.5,150.5C 27.8333,149.833 26.1667,148.167 25.5,145.5 Z"/></g>
<g><path style="opacity:1" fill="#000000" d="M 268.5,149.5 C 274.701,148.285 279.868,149.952 284,154.5C 284.483,155.448 284.649,156.448 284.5,157.5C 282.473,157.662 280.473,157.495 278.5,157C 274.864,152.38 271.364,152.546 268,157.5C 267.233,161.558 267.4,165.558 268.5,169.5C 273.65,173.608 277.317,172.442 279.5,166C 277.19,165.503 274.857,165.337 272.5,165.5C 272.5,164.167 272.5,162.833 272.5,161.5C 276.5,161.5 280.5,161.5 284.5,161.5C 284.5,166.167 284.5,170.833 284.5,175.5C 282.549,175.773 281.049,175.107 280,173.5C 276.319,176.36 272.152,177.193 267.5,176C 261.412,171.748 259.246,165.915 261,158.5C 262.113,154.234 264.613,151.234 268.5,149.5 Z"/></g>
<g><path style="opacity:1" fill="#000000" d="M 156.5,150.5 C 159.5,150.5 162.5,150.5 165.5,150.5C 166.347,155.889 167.514,161.223 169,166.5C 170.788,161.687 172.121,156.687 173,151.5C 175.719,150.556 178.552,150.223 181.5,150.5C 181.5,158.833 181.5,167.167 181.5,175.5C 179.833,175.5 178.167,175.5 176.5,175.5C 177.103,153.086 175.769,153.086 172.5,175.5C 170.208,175.756 168.041,175.423 166,174.5C 165,170.167 164,165.833 163,161.5C 162.501,166.155 162.334,170.821 162.5,175.5C 160.5,175.5 158.5,175.5 156.5,175.5C 156.5,167.167 156.5,158.833 156.5,150.5 Z"/></g>
<g><path style="opacity:1" fill="#000000" d="M 192.5,150.5 C 195.167,150.5 197.833,150.5 200.5,150.5C 202.562,158.686 205.229,166.686 208.5,174.5C 206.257,175.474 203.924,175.808 201.5,175.5C 201.579,174.07 201.246,172.736 200.5,171.5C 197.572,170.516 194.572,170.183 191.5,170.5C 191.166,174.648 188.833,176.315 184.5,175.5C 187.167,167.167 189.833,158.833 192.5,150.5 Z M 195.5,158.5 C 197.267,160.792 198.267,163.458 198.5,166.5C 196.712,166.785 195.045,166.452 193.5,165.5C 194.577,163.271 195.244,160.937 195.5,158.5 Z"/></g>
<g><path style="opacity:1" fill="#000000" d="M 210.5,150.5 C 213.119,150.232 215.619,150.565 218,151.5C 220.412,156.659 223.079,161.659 226,166.5C 226.499,161.177 226.666,155.844 226.5,150.5C 228.5,150.5 230.5,150.5 232.5,150.5C 232.5,158.833 232.5,167.167 232.5,175.5C 230.143,175.663 227.81,175.497 225.5,175C 222.541,170.249 219.707,165.416 217,160.5C 216.501,165.489 216.334,170.489 216.5,175.5C 214.5,175.5 212.5,175.5 210.5,175.5C 210.5,167.167 210.5,158.833 210.5,150.5 Z"/></g>
<g><path style="opacity:1" fill="#000000" d="M 243.5,150.5 C 246.167,150.5 248.833,150.5 251.5,150.5C 253.562,158.686 256.229,166.686 259.5,174.5C 257.257,175.474 254.924,175.808 252.5,175.5C 252.579,174.07 252.246,172.736 251.5,171.5C 248.572,170.516 245.572,170.183 242.5,170.5C 242.166,174.648 239.833,176.315 235.5,175.5C 238.167,167.167 240.833,158.833 243.5,150.5 Z M 246.5,158.5 C 248.267,160.792 249.267,163.458 249.5,166.5C 247.712,166.785 246.045,166.452 244.5,165.5C 245.577,163.271 246.244,160.937 246.5,158.5 Z"/></g>
<g><path style="opacity:1" fill="#000000" d="M 288.5,150.5 C 295.167,150.5 301.833,150.5 308.5,150.5C 308.5,151.833 308.5,153.167 308.5,154.5C 303.833,154.5 299.167,154.5 294.5,154.5C 294.5,156.5 294.5,158.5 294.5,160.5C 298.833,160.5 303.167,160.5 307.5,160.5C 307.5,161.833 307.5,163.167 307.5,164.5C 303.167,164.5 298.833,164.5 294.5,164.5C 294.5,166.5 294.5,168.5 294.5,170.5C 299.167,170.5 303.833,170.5 308.5,170.5C 308.5,172.167 308.5,173.833 308.5,175.5C 301.833,175.5 295.167,175.5 288.5,175.5C 288.5,167.167 288.5,158.833 288.5,150.5 Z"/></g>
<g><path style="opacity:1" fill="#000000" d="M 311.5,150.5 C 314.5,150.5 317.5,150.5 320.5,150.5C 321.347,155.889 322.514,161.223 324,166.5C 325.788,161.687 327.121,156.687 328,151.5C 330.719,150.556 333.552,150.223 336.5,150.5C 336.5,158.833 336.5,167.167 336.5,175.5C 334.833,175.5 333.167,175.5 331.5,175.5C 332.103,153.086 330.769,153.086 327.5,175.5C 325.208,175.756 323.041,175.423 321,174.5C 320,170.167 319,165.833 318,161.5C 317.501,166.155 317.334,170.821 317.5,175.5C 315.5,175.5 313.5,175.5 311.5,175.5C 311.5,167.167 311.5,158.833 311.5,150.5 Z"/></g>
<g><path style="opacity:1" fill="#000000" d="M 341.5,150.5 C 348.167,150.5 354.833,150.5 361.5,150.5C 361.5,151.833 361.5,153.167 361.5,154.5C 356.833,154.5 352.167,154.5 347.5,154.5C 347.5,156.5 347.5,158.5 347.5,160.5C 351.833,160.5 356.167,160.5 360.5,160.5C 360.5,161.833 360.5,163.167 360.5,164.5C 356.167,164.5 351.833,164.5 347.5,164.5C 347.5,166.5 347.5,168.5 347.5,170.5C 352.167,170.5 356.833,170.5 361.5,170.5C 361.5,172.167 361.5,173.833 361.5,175.5C 354.833,175.5 348.167,175.5 341.5,175.5C 341.5,167.167 341.5,158.833 341.5,150.5 Z"/></g>
<g><path style="opacity:1" fill="#000000" d="M 364.5,150.5 C 367.119,150.232 369.619,150.565 372,151.5C 374.412,156.659 377.079,161.659 380,166.5C 380.499,161.177 380.666,155.844 380.5,150.5C 382.5,150.5 384.5,150.5 386.5,150.5C 386.5,158.833 386.5,167.167 386.5,175.5C 384.143,175.663 381.81,175.497 379.5,175C 376.541,170.249 373.707,165.416 371,160.5C 370.501,165.489 370.334,170.489 370.5,175.5C 368.5,175.5 366.5,175.5 364.5,175.5C 364.5,167.167 364.5,158.833 364.5,150.5 Z"/></g>
<g><path style="opacity:1" fill="#000000" d="M 387.5,150.5 C 394.5,150.5 401.5,150.5 408.5,150.5C 408.5,151.833 408.5,153.167 408.5,154.5C 406.167,154.5 403.833,154.5 401.5,154.5C 401.5,161.5 401.5,168.5 401.5,175.5C 399.5,175.5 397.5,175.5 395.5,175.5C 395.5,168.5 395.5,161.5 395.5,154.5C 392.833,154.5 390.167,154.5 387.5,154.5C 387.5,153.167 387.5,151.833 387.5,150.5 Z"/></g>
<g><path style="opacity:1" fill="#000000" d="M 24.5,153.5 C 26.4044,153.738 27.7377,154.738 28.5,156.5C 26.5956,156.262 25.2623,155.262 24.5,153.5 Z"/></g>
<g><path style="opacity:1" fill="#000000" d="M 142.5,150.5 C 142.405,152.786 141.738,154.786 140.5,156.5C 140.259,154.102 140.926,152.102 142.5,150.5 Z"/></g>
<g><path style="opacity:1" fill="#000000" d="M 91.5,148.5 C 88.6024,150.773 88.9358,152.273 92.5,153C 88.2943,155.602 83.961,157.936 79.5,160C 77.1527,160.334 74.8194,160.167 72.5,159.5C 72.5,159.167 72.5,158.833 72.5,158.5C 79.3028,155.933 85.6361,152.6 91.5,148.5 Z"/></g>
<g><path style="opacity:1" fill="#000000" d="M 43.5,157.5 C 45.7857,157.595 47.7857,158.262 49.5,159.5C 47.1016,159.741 45.1016,159.074 43.5,157.5 Z"/></g>
<g><path style="opacity:1" fill="#000000" d="M 72.5,158.5 C 72.5,158.833 72.5,159.167 72.5,159.5C 69.5701,160.299 66.5701,160.632 63.5,160.5C 66.3112,159.525 69.3112,158.858 72.5,158.5 Z"/></g>
<g><path style="opacity:1" fill="#000000" d="M 29.5,157.5 C 31.0174,157.511 32.1841,158.177 33,159.5C 34.7023,165.896 37.2023,171.896 40.5,177.5C 34.9711,171.965 31.3045,165.299 29.5,157.5 Z"/></g>
<g><path style="opacity:1" fill="#000000" d="M 41.5,164.5 C 41.5,165.167 41.5,165.833 41.5,166.5C 40.7326,165.828 40.0659,164.995 39.5,164C 40.4368,163.308 41.1034,163.475 41.5,164.5 Z"/></g>
<g><path style="opacity:1" fill="#000000" d="M 44.5,165.5 C 47.1522,165.41 49.4855,166.076 51.5,167.5C 48.8478,167.59 46.5145,166.924 44.5,165.5 Z"/></g>
<g><path style="opacity:1" fill="#000000" d="M 42.5,169.5 C 43.9063,169.973 44.573,170.973 44.5,172.5C 43.0937,172.027 42.427,171.027 42.5,169.5 Z"/></g>
<g><path style="opacity:1" fill="#000000" d="M 129.5,165.5 C 125.477,170.566 120.811,174.899 115.5,178.5C 113.929,177.691 112.262,177.357 110.5,177.5C 112.55,175.453 114.883,173.786 117.5,172.5C 121.5,170.167 125.5,167.833 129.5,165.5 Z"/></g>
<g><path style="opacity:1" fill="#000000" d="M 44.5,172.5 C 46.2624,173.262 47.2624,174.596 47.5,176.5C 45.7376,175.738 44.7376,174.404 44.5,172.5 Z"/></g>
<g><path style="opacity:1" fill="#000000" d="M 49.5,177.5 C 51.2303,178.026 52.5637,179.026 53.5,180.5C 51.368,180.446 50.0347,179.446 49.5,177.5 Z"/></g>
<g><path style="opacity:1" fill="#000000" d="M 44.5,181.5 C 46.4044,181.738 47.7377,182.738 48.5,184.5C 46.5956,184.262 45.2623,183.262 44.5,181.5 Z"/></g>
<g><path style="opacity:1" fill="#000000" d="M 48.5,184.5 C 50.0269,184.427 51.0269,185.094 51.5,186.5C 49.9731,186.573 48.9731,185.906 48.5,184.5 Z"/></g>
<g><path style="opacity:1" fill="#000000" d="M 59.5,190.5 C 62.1522,190.41 64.4855,191.076 66.5,192.5C 63.8478,192.59 61.5145,191.924 59.5,190.5 Z"/></g>
</svg>
